<svg width="120" height="120" viewBox="0 0 120 120" fill="none" xmlns="http://www.w3.org/2000/svg">
  <rect width="120" height="120" fill="#F3F4F6"/>
  <path d="M60 45C57.2386 45 55 47.2386 55 50C55 52.7614 57.2386 55 60 55C62.7614 55 65 52.7614 65 50C65 47.2386 62.7614 45 60 45Z" fill="#9CA3AF"/>
  <path fill-rule="evenodd" clip-rule="evenodd" d="M45 40C45 37.2386 47.2386 35 50 35H70C72.7614 35 75 37.2386 75 40V60C75 62.7614 72.7614 65 70 65H50C47.2386 65 45 62.7614 45 60V40ZM50 40H70V54.1716L65.8284 50L60 55.8284L54.1716 50L50 54.1716V40Z" fill="#9CA3AF"/>
</svg> 